<?xml version="1.0" encoding="utf-8"?>
<!-- Generator: Adobe Illustrator 21.0.1, SVG Export Plug-In . SVG Version: 6.00 Build 0)  -->
<svg version="1.1" id="Layer_1" xmlns="http://www.w3.org/2000/svg" xmlns:xlink="http://www.w3.org/1999/xlink" x="0px" y="0px"
	 viewBox="0 0 134.2 36.3" style="enable-background:new 0 0 134.2 36.3;" xml:space="preserve">
<style type="text/css">
	.st0{fill:#FFFFFF;}
	.st1{fill:#255227;}
	.st2{fill:#7AC143;}
	.st3{fill:#454545;}
	.st4{fill:#878787;}
	.st5{fill:#D3D3D3;}
</style>
<polygon class="st0" points="4.5,7.8 18,0 31.4,7.8 31.4,23.3 18,31.2 4.5,23.3 "/>
<polygon class="st1" points="22.5,15.5 27,12.9 27,7.7 18,12.9 22.5,15.5 22.5,15.5 22.5,15.5 22.5,15.5 "/>
<polygon class="st1" points="27,23.3 27,18.1 22.5,20.7 18,23.3 18,23.3 18,23.3 18,23.3 18,23.3 18,28.5 "/>
<polygon class="st2" points="8.1,10.3 8.1,20.7 12.6,23.3 12.6,7.7 "/>
<path class="st2" d="M22.5,5.1L22.5,5.1L22.5,5.1L18,2.5v0l-4.5,2.6v5.2v5.2v0v5.2v5.2l4.5,2.6v-5.2v-5.2l4.5,2.6l0,0l4.5,2.6v-5.2
	l0,0l-9-5.2v0v0V7.7v0v0l4.5,2.6v0l0,0l4.5,2.6V7.7v0L22.5,5.1z M18,18.1L18,18.1L18,18.1L18,18.1z"/>
<polygon class="st3" points="35.9,5.2 31.4,7.8 31.4,23.3 18,31.1 18,31.1 18,31.1 18,36.3 31.4,23.3 "/>
<polygon class="st4" points="17.9,36.3 18,31.1 4.5,23.3 4.5,7.8 4.5,7.8 4.5,7.8 0,5.2 4.5,23.3 "/>
<polygon class="st5" points="0,5.2 4.5,7.8 18,0 31.4,7.8 31.4,7.8 31.4,7.8 35.9,5.2 18,0 "/>
<path class="st2" d="M47.6,25.3h-2.4V5.1h2.4V25.3z"/>
<path class="st2" d="M59.3,25.1c-0.5,0.3-1.3,0.5-2.2,0.5c-2.5,0-3.8-1.4-3.8-4.2v-8.5h-2.5v-2h2.5V7.3l2.3-0.7v4.3h3.6v2h-3.6v8.1
	c0,1,0.2,1.7,0.5,2.1c0.3,0.4,0.9,0.6,1.6,0.6c0.6,0,1.1-0.2,1.5-0.5V25.1z"/>
<path class="st0" d="M62.3,25.3V5.1h7.4c2.3,0,4,0.4,5.2,1.2c1.2,0.8,1.8,2,1.8,3.5c0,1.1-0.4,2-1.1,2.9c-0.7,0.8-1.7,1.4-2.8,1.7
	v0.1c1.4,0.2,2.6,0.7,3.4,1.6c0.9,0.9,1.3,2,1.3,3.2c0,1.9-0.7,3.3-2,4.4c-1.3,1.1-3.1,1.6-5.4,1.6H62.3z M66.9,8.4v4.8h2
	c0.9,0,1.7-0.2,2.2-0.7c0.5-0.5,0.8-1.1,0.8-1.9c0-1.5-1.1-2.2-3.3-2.2H66.9z M66.9,16.6v5.3h2.5c1.1,0,1.9-0.2,2.5-0.7
	c0.6-0.5,0.9-1.2,0.9-2c0-0.8-0.3-1.4-0.9-1.9c-0.6-0.5-1.4-0.7-2.5-0.7H66.9z"/>
<path class="st0" d="M94.1,25.3h-4.4v-2.2h-0.1c-1.1,1.7-2.6,2.6-4.4,2.6c-3.3,0-5-2-5-6.1v-8.7h4.4v8.3c0,2,0.8,3.1,2.4,3.1
	c0.8,0,1.4-0.3,1.9-0.8c0.5-0.6,0.7-1.3,0.7-2.3v-8.3h4.4V25.3z"/>
<path class="st0" d="M107.3,14.9c-0.5-0.3-1.2-0.4-1.9-0.4c-1,0-1.7,0.4-2.3,1.1c-0.5,0.7-0.8,1.7-0.8,2.9v6.9h-4.5V10.8h4.5v2.7
	h0.1c0.7-2,2-2.9,3.8-2.9c0.5,0,0.8,0.1,1.1,0.2V14.9z"/>
<path class="st0" d="M108.6,24.9v-3.6c0.7,0.4,1.5,0.8,2.2,1c0.7,0.2,1.4,0.3,2.1,0.3c0.8,0,1.4-0.1,1.9-0.3c0.5-0.2,0.7-0.5,0.7-1
	c0-0.3-0.1-0.5-0.3-0.7c-0.2-0.2-0.5-0.4-0.8-0.5c-0.3-0.1-0.7-0.3-1.1-0.4s-0.8-0.2-1.1-0.4c-0.6-0.2-1.1-0.4-1.5-0.7
	c-0.4-0.2-0.8-0.5-1.1-0.9c-0.3-0.3-0.5-0.7-0.7-1.1c-0.2-0.4-0.2-0.9-0.2-1.5c0-0.8,0.2-1.5,0.5-2.1c0.4-0.6,0.8-1.1,1.4-1.4
	c0.6-0.4,1.3-0.6,2-0.8c0.8-0.2,1.5-0.3,2.4-0.3c0.6,0,1.3,0,1.9,0.1c0.7,0.1,1.3,0.2,1.9,0.4v3.4c-0.6-0.3-1.2-0.6-1.8-0.7
	c-0.6-0.2-1.3-0.2-1.9-0.2c-0.3,0-0.6,0-0.8,0.1c-0.3,0.1-0.5,0.1-0.7,0.2c-0.2,0.1-0.4,0.2-0.5,0.4c-0.1,0.2-0.2,0.3-0.2,0.5
	c0,0.3,0.1,0.5,0.3,0.7c0.2,0.2,0.4,0.3,0.7,0.5c0.3,0.1,0.6,0.3,0.9,0.4c0.3,0.1,0.7,0.2,1,0.3c0.6,0.2,1.1,0.4,1.6,0.7
	c0.5,0.2,0.9,0.5,1.2,0.9c0.3,0.3,0.6,0.7,0.8,1.2c0.2,0.4,0.3,1,0.3,1.6c0,0.9-0.2,1.6-0.6,2.2c-0.4,0.6-0.9,1.1-1.5,1.5
	c-0.6,0.4-1.3,0.7-2.1,0.8c-0.8,0.2-1.6,0.3-2.5,0.3C111.4,25.6,109.9,25.4,108.6,24.9z"/>
<path class="st0" d="M134.2,25.3H130v-2.1H130c-1,1.6-2.4,2.4-4.3,2.4c-1.4,0-2.5-0.4-3.3-1.2c-0.8-0.8-1.2-1.9-1.2-3.2
	c0-2.8,1.7-4.4,5-4.8l3.9-0.5c0-1.6-0.9-2.4-2.6-2.4c-1.7,0-3.4,0.5-4.9,1.5v-3.4c0.6-0.3,1.5-0.6,2.5-0.8c1.1-0.2,2.1-0.4,2.9-0.4
	c4.1,0,6.2,2.1,6.2,6.2V25.3z M130,19.4v-1l-2.6,0.3c-1.4,0.2-2.2,0.8-2.2,2c0,0.5,0.2,0.9,0.5,1.2c0.4,0.3,0.8,0.5,1.4,0.5
	c0.8,0,1.5-0.3,2-0.9C129.8,21,130,20.3,130,19.4z"/>
</svg>
